<mxfile host="Electron" modified="2024-07-16T19:05:10.582Z" agent="Mozilla/5.0 (Windows NT 10.0; Win64; x64) AppleWebKit/537.36 (KHTML, like Gecko) draw.io/22.1.16 Chrome/120.0.6099.109 Electron/28.1.0 Safari/537.36" version="22.1.16" etag="vztPKv3BObS8IMokv6Ce" type="device">
  <diagram name="Page 1" id="Page-1">
    <mxGraphModel dx="1569" dy="1343" grid="1" gridSize="10" guides="1" tooltips="1" connect="1" arrows="1" fold="1" page="1" pageScale="1" pageWidth="800" pageHeight="250" math="0" shadow="0">
      <root>
        <mxCell id="0" />
        <mxCell id="1" parent="0" />
        <UserObject label="" tags="Background" id="2">
          <mxCell style="vsdxID=14;fillColor=none;gradientColor=none;strokeColor=none;points=[];labelBackgroundColor=none;rounded=0;html=1;whiteSpace=wrap;" parent="1" vertex="1">
            <mxGeometry x="200" y="24" width="78" height="98" as="geometry" />
          </mxCell>
        </UserObject>
        <mxCell id="3" style="vsdxID=15;fillColor=#FFFFFF;gradientColor=none;shape=stencil(pZHNDsIgEISfhitZFkzDudb3aFIqRISG4t/bCxJjW22i8Ta7fLMhM4TXo24HRRDGGPxBXUwXNeFbgmicVsHEpAhvCK97H9Q++JPryjy0mczq6M/5wrX4GED2INzKjIwyfGx2BbfGTfBKULGZGWAdnl8GCvxb9vmrj6iUVFb/4CgoinXDWyQ/4ssEk3il3xtrS3nT92VbaVWa5s0d);strokeColor=none;strokeWidth=0;spacingTop=-3;spacingBottom=-3;spacingLeft=-3;spacingRight=-3;points=[];labelBackgroundColor=none;rounded=0;html=1;whiteSpace=wrap;" parent="2" vertex="1">
          <mxGeometry x="5" y="8" width="68" height="81" as="geometry" />
        </mxCell>
        <mxCell id="4" style="vsdxID=16;fillColor=#FFFFFF;gradientColor=#ffffff;shape=stencil(nZHdCsIwDIWfJrcjSxQfYM73GKyzwdqOrv69va1BHIKKuzvJ+U4gCXAz2W40QDilGA7mIn2ywFsgEm9NlJQVcAvcDCGafQwn32s9doUs6hjOZcJVc5tVtaaSIrxpBx/VTmEnfgbjMrDGL+jTXARTXSF/xv9a7gecxeuGgzinL5j77zfPLf0Xt3c=);strokeColor=none;strokeWidth=0;spacingTop=-3;spacingBottom=-3;spacingLeft=-3;spacingRight=-3;points=[];labelBackgroundColor=none;rounded=0;html=1;whiteSpace=wrap;" parent="2" vertex="1">
          <mxGeometry x="5" y="8" width="68" height="81" as="geometry" />
        </mxCell>
        <mxCell id="5" style="vsdxID=17;fillColor=#a6a6a6;gradientColor=none;shape=stencil(nZHdDsIgDIWfprek0jjles73WDImRISF4d/bCzbG+Z94d1q+NodToHo07aBB4phi2Oqj7ZIBWoGU1hsdbcoKqAGq+xD1Joa977ge2kIWtQuHsuHEczPEMiPxzLWqxHJ+7awZd9ZP8ErIxQOPn1n8D7w5eou+2FVCfbH783dZ3JPprXMc7PT9Ocnc4itQcwE=);strokeColor=none;strokeWidth=0;spacingTop=-3;spacingBottom=-3;spacingLeft=-3;spacingRight=-3;points=[];labelBackgroundColor=none;rounded=0;html=1;whiteSpace=wrap;" parent="2" vertex="1">
          <mxGeometry x="54" y="8" width="18" height="17" as="geometry" />
        </mxCell>
        <mxCell id="6" style="vsdxID=18;fillColor=#FFFFFF;gradientColor=none;shape=stencil(UzV2Ls5ILEhVNTIoLinKz04tz0wpyVA1dlE1MsrMy0gtyiwBslSNXVWNndPyi1LTi/JL81Ig/IJEkEoQKze/DGRCBUSfAUiHkUElhGdoAOG7QZTmZOYhKYVJwhRbWupZmuBWjqoYj7l4nQBkIJyelpmTA/E5sjy6V4FCkGAydgUA);strokeColor=none;strokeWidth=0;spacingTop=-3;spacingBottom=-3;spacingLeft=-3;spacingRight=-3;points=[];labelBackgroundColor=none;rounded=0;html=1;whiteSpace=wrap;" parent="2" vertex="1">
          <mxGeometry x="55" y="9" width="16" height="16" as="geometry" />
        </mxCell>
        <mxCell id="7" style="vsdxID=19;fillColor=none;gradientColor=none;shape=stencil(pZHNDsIgEISfhitZFkzDudb3aFIqRISG4t/bCxJjW22i8Ta7fLMhM4TXo24HRRDGGPxBXUwXNeFbgmicVsHEpAhvCK97H9Q++JPryjy0mczq6M/5wrX4GED2INzKjIwyfGx2BbfGTfBKULGZGWAdnl8GCvxb9vmrj6iUVFb/4CgoinXDWyQ/4ssEk3il3xtrS3nT92VbaVWa5s0d);strokeColor=#000000;spacingTop=-3;spacingBottom=-3;spacingLeft=-3;spacingRight=-3;points=[];labelBackgroundColor=none;rounded=0;html=1;whiteSpace=wrap;" parent="2" vertex="1">
          <mxGeometry x="5" y="8" width="68" height="81" as="geometry" />
        </mxCell>
        <mxCell id="8" style="vsdxID=20;fillColor=#ffffff;gradientColor=#a4a4a4;shape=stencil(nZBLDoAgDERP0z3SIyjew0SURgSD+Lu9kMZoXLhwN9O+tukAlrNpJg1SzDH4QW/URgNYgZTkjA4UkwJUgGXng+6DX1zLfmoymdXo17xh5zmRJ6Q42BWCfc2oJfdAr+Yv+AP9Cb7OJ3H/2JG1HNGz/84klThPVCc=);strokeColor=none;strokeWidth=0;spacingTop=-3;spacingBottom=-3;spacingLeft=-3;spacingRight=-3;points=[];labelBackgroundColor=none;rounded=0;html=1;whiteSpace=wrap;" parent="2" vertex="1">
          <mxGeometry x="11" y="27" width="31" as="geometry" />
        </mxCell>
        <mxCell id="9" style="vsdxID=21;fillColor=#ffffff;gradientColor=#a4a4a4;shape=stencil(nZBLDoAgDERP0z3SIyjew0SURgSD+Lu9kMZoXLhwN9O+tukAlrNpJg1SzDH4QW/URgNYgZTkjA4UkwJUgGXng+6DX1zLfmoymdXo17xh5zmRJ6Q42BWCfc2oJfdAr+Yv+AP9Cb7OJ3H/2JG1HNGz/84klThPVCc=);strokeColor=none;strokeWidth=0;spacingTop=-3;spacingBottom=-3;spacingLeft=-3;spacingRight=-3;points=[];labelBackgroundColor=none;rounded=0;html=1;whiteSpace=wrap;" parent="2" vertex="1">
          <mxGeometry x="11" y="36" width="52" as="geometry" />
        </mxCell>
        <mxCell id="10" style="vsdxID=22;fillColor=#ffffff;gradientColor=#a4a4a4;shape=stencil(nZBLDoAgDERP0z3SIyjew0SURgSD+Lu9kMZoXLhwN9O+tukAlrNpJg1SzDH4QW/URgNYgZTkjA4UkwJUgGXng+6DX1zLfmoymdXo17xh5zmRJ6Q42BWCfc2oJfdAr+Yv+AP9Cb7OJ3H/2JG1HNGz/84klThPVCc=);strokeColor=none;strokeWidth=0;spacingTop=-3;spacingBottom=-3;spacingLeft=-3;spacingRight=-3;points=[];labelBackgroundColor=none;rounded=0;html=1;whiteSpace=wrap;" parent="2" vertex="1">
          <mxGeometry x="11" y="44" width="52" as="geometry" />
        </mxCell>
        <mxCell id="11" style="vsdxID=23;fillColor=#ffffff;gradientColor=#a4a4a4;shape=stencil(nZBLDoAgDERP0z3SIyjew0SURgSD+Lu9kMZoXLhwN9O+tukAlrNpJg1SzDH4QW/URgNYgZTkjA4UkwJUgGXng+6DX1zLfmoymdXo17xh5zmRJ6Q42BWCfc2oJfdAr+Yv+AP9Cb7OJ3H/2JG1HNGz/84klThPVCc=);strokeColor=none;strokeWidth=0;spacingTop=-3;spacingBottom=-3;spacingLeft=-3;spacingRight=-3;points=[];labelBackgroundColor=none;rounded=0;html=1;whiteSpace=wrap;" parent="2" vertex="1">
          <mxGeometry x="11" y="52" width="52" as="geometry" />
        </mxCell>
        <mxCell id="12" style="vsdxID=24;fillColor=#ffffff;gradientColor=#a4a4a4;shape=stencil(nZBLDoAgDERP0z3SIyjew0SURgSD+Lu9kMZoXLhwN9O+tukAlrNpJg1SzDH4QW/URgNYgZTkjA4UkwJUgGXng+6DX1zLfmoymdXo17xh5zmRJ6Q42BWCfc2oJfdAr+Yv+AP9Cb7OJ3H/2JG1HNGz/84klThPVCc=);strokeColor=none;strokeWidth=0;spacingTop=-3;spacingBottom=-3;spacingLeft=-3;spacingRight=-3;points=[];labelBackgroundColor=none;rounded=0;html=1;whiteSpace=wrap;" parent="2" vertex="1">
          <mxGeometry x="11" y="60" width="52" as="geometry" />
        </mxCell>
        <mxCell id="13" style="vsdxID=25;fillColor=#ffffff;gradientColor=#a4a4a4;shape=stencil(nZBLDoAgDERP0z3SIyjew0SURgSD+Lu9kMZoXLhwN9O+tukAlrNpJg1SzDH4QW/URgNYgZTkjA4UkwJUgGXng+6DX1zLfmoymdXo17xh5zmRJ6Q42BWCfc2oJfdAr+Yv+AP9Cb7OJ3H/2JG1HNGz/84klThPVCc=);strokeColor=none;strokeWidth=0;spacingTop=-3;spacingBottom=-3;spacingLeft=-3;spacingRight=-3;points=[];labelBackgroundColor=none;rounded=0;html=1;whiteSpace=wrap;" parent="2" vertex="1">
          <mxGeometry x="11" y="68" width="52" as="geometry" />
        </mxCell>
        <mxCell id="14" style="vsdxID=26;fillColor=#ffffff;gradientColor=#a4a4a4;shape=stencil(nZBLDoAgDERP0z3SIyjew0SURgSD+Lu9kMZoXLhwN9O+tukAlrNpJg1SzDH4QW/URgNYgZTkjA4UkwJUgGXng+6DX1zLfmoymdXo17xh5zmRJ6Q42BWCfc2oJfdAr+Yv+AP9Cb7OJ3H/2JG1HNGz/84klThPVCc=);strokeColor=none;strokeWidth=0;spacingTop=-3;spacingBottom=-3;spacingLeft=-3;spacingRight=-3;points=[];labelBackgroundColor=none;rounded=0;html=1;whiteSpace=wrap;" parent="2" vertex="1">
          <mxGeometry x="11" y="76" width="52" as="geometry" />
        </mxCell>
        <mxCell id="15" value="&lt;div style=&quot;font-size: 1px&quot;&gt;&lt;font style=&quot;font-size:16.93px;font-family:Calibri;color:#000000;direction:ltr;letter-spacing:0px;line-height:120%;opacity:1&quot;&gt;.h&lt;br/&gt;&lt;/font&gt;&lt;/div&gt;" style="text;vsdxID=14;fillColor=none;gradientColor=none;strokeColor=none;points=[];labelBackgroundColor=none;rounded=0;html=1;whiteSpace=wrap;verticalAlign=middle;align=center;overflow=width;;html=1;" parent="2" vertex="1">
          <mxGeometry x="25.85" y="35.88" width="28.29" height="31.61" as="geometry" />
        </mxCell>
        <UserObject label="" tags="Background" id="16">
          <mxCell style="vsdxID=27;fillColor=none;gradientColor=none;strokeColor=none;points=[];labelBackgroundColor=none;rounded=0;html=1;whiteSpace=wrap;" parent="1" vertex="1">
            <mxGeometry x="200" y="127" width="78" height="98" as="geometry" />
          </mxCell>
        </UserObject>
        <mxCell id="17" style="vsdxID=28;fillColor=#FFFFFF;gradientColor=none;shape=stencil(pZHNDsIgEISfhitZFkzDudb3aFIqRISG4t/bCxJjW22i8Ta7fLMhM4TXo24HRRDGGPxBXUwXNeFbgmicVsHEpAhvCK97H9Q++JPryjy0mczq6M/5wrX4GED2INzKjIwyfGx2BbfGTfBKULGZGWAdnl8GCvxb9vmrj6iUVFb/4CgoinXDWyQ/4ssEk3il3xtrS3nT92VbaVWa5s0d);strokeColor=none;strokeWidth=0;spacingTop=-3;spacingBottom=-3;spacingLeft=-3;spacingRight=-3;points=[];labelBackgroundColor=none;rounded=0;html=1;whiteSpace=wrap;" parent="16" vertex="1">
          <mxGeometry x="5" y="8" width="68" height="81" as="geometry" />
        </mxCell>
        <mxCell id="18" style="vsdxID=29;fillColor=#FFFFFF;gradientColor=#ffffff;shape=stencil(nZHdCsIwDIWfJrcjSxQfYM73GKyzwdqOrv69va1BHIKKuzvJ+U4gCXAz2W40QDilGA7mIn2ywFsgEm9NlJQVcAvcDCGafQwn32s9doUs6hjOZcJVc5tVtaaSIrxpBx/VTmEnfgbjMrDGL+jTXARTXSF/xv9a7gecxeuGgzinL5j77zfPLf0Xt3c=);strokeColor=none;strokeWidth=0;spacingTop=-3;spacingBottom=-3;spacingLeft=-3;spacingRight=-3;points=[];labelBackgroundColor=none;rounded=0;html=1;whiteSpace=wrap;" parent="16" vertex="1">
          <mxGeometry x="5" y="8" width="68" height="81" as="geometry" />
        </mxCell>
        <mxCell id="19" style="vsdxID=30;fillColor=#a6a6a6;gradientColor=none;shape=stencil(nZHdDsIgDIWfprek0jjles73WDImRISF4d/bCzbG+Z94d1q+NodToHo07aBB4phi2Oqj7ZIBWoGU1hsdbcoKqAGq+xD1Joa977ge2kIWtQuHsuHEczPEMiPxzLWqxHJ+7awZd9ZP8ErIxQOPn1n8D7w5eou+2FVCfbH783dZ3JPprXMc7PT9Ocnc4itQcwE=);strokeColor=none;strokeWidth=0;spacingTop=-3;spacingBottom=-3;spacingLeft=-3;spacingRight=-3;points=[];labelBackgroundColor=none;rounded=0;html=1;whiteSpace=wrap;" parent="16" vertex="1">
          <mxGeometry x="54" y="8" width="18" height="17" as="geometry" />
        </mxCell>
        <mxCell id="20" style="vsdxID=31;fillColor=#FFFFFF;gradientColor=none;shape=stencil(UzV2Ls5ILEhVNTIoLinKz04tz0wpyVA1dlE1MsrMy0gtyiwBslSNXVWNndPyi1LTi/JL81Ig/IJEkEoQKze/DGRCBUSfAUiHkUElhGdoAOG7QZTmZOYhKYVJwhRbWupZmuBWjqoYj7l4nQBkIJyelpmTA/E5sjy6V4FCkGAydgUA);strokeColor=none;strokeWidth=0;spacingTop=-3;spacingBottom=-3;spacingLeft=-3;spacingRight=-3;points=[];labelBackgroundColor=none;rounded=0;html=1;whiteSpace=wrap;" parent="16" vertex="1">
          <mxGeometry x="55" y="9" width="16" height="16" as="geometry" />
        </mxCell>
        <mxCell id="21" style="vsdxID=32;fillColor=none;gradientColor=none;shape=stencil(pZHNDsIgEISfhitZFkzDudb3aFIqRISG4t/bCxJjW22i8Ta7fLMhM4TXo24HRRDGGPxBXUwXNeFbgmicVsHEpAhvCK97H9Q++JPryjy0mczq6M/5wrX4GED2INzKjIwyfGx2BbfGTfBKULGZGWAdnl8GCvxb9vmrj6iUVFb/4CgoinXDWyQ/4ssEk3il3xtrS3nT92VbaVWa5s0d);strokeColor=#000000;spacingTop=-3;spacingBottom=-3;spacingLeft=-3;spacingRight=-3;points=[];labelBackgroundColor=none;rounded=0;html=1;whiteSpace=wrap;" parent="16" vertex="1">
          <mxGeometry x="5" y="8" width="68" height="81" as="geometry" />
        </mxCell>
        <mxCell id="22" style="vsdxID=33;fillColor=#ffffff;gradientColor=#a4a4a4;shape=stencil(nZBLDoAgDERP0z3SIyjew0SURgSD+Lu9kMZoXLhwN9O+tukAlrNpJg1SzDH4QW/URgNYgZTkjA4UkwJUgGXng+6DX1zLfmoymdXo17xh5zmRJ6Q42BWCfc2oJfdAr+Yv+AP9Cb7OJ3H/2JG1HNGz/84klThPVCc=);strokeColor=none;strokeWidth=0;spacingTop=-3;spacingBottom=-3;spacingLeft=-3;spacingRight=-3;points=[];labelBackgroundColor=none;rounded=0;html=1;whiteSpace=wrap;" parent="16" vertex="1">
          <mxGeometry x="11" y="27" width="31" as="geometry" />
        </mxCell>
        <mxCell id="23" style="vsdxID=34;fillColor=#ffffff;gradientColor=#a4a4a4;shape=stencil(nZBLDoAgDERP0z3SIyjew0SURgSD+Lu9kMZoXLhwN9O+tukAlrNpJg1SzDH4QW/URgNYgZTkjA4UkwJUgGXng+6DX1zLfmoymdXo17xh5zmRJ6Q42BWCfc2oJfdAr+Yv+AP9Cb7OJ3H/2JG1HNGz/84klThPVCc=);strokeColor=none;strokeWidth=0;spacingTop=-3;spacingBottom=-3;spacingLeft=-3;spacingRight=-3;points=[];labelBackgroundColor=none;rounded=0;html=1;whiteSpace=wrap;" parent="16" vertex="1">
          <mxGeometry x="11" y="36" width="52" as="geometry" />
        </mxCell>
        <mxCell id="24" style="vsdxID=35;fillColor=#ffffff;gradientColor=#a4a4a4;shape=stencil(nZBLDoAgDERP0z3SIyjew0SURgSD+Lu9kMZoXLhwN9O+tukAlrNpJg1SzDH4QW/URgNYgZTkjA4UkwJUgGXng+6DX1zLfmoymdXo17xh5zmRJ6Q42BWCfc2oJfdAr+Yv+AP9Cb7OJ3H/2JG1HNGz/84klThPVCc=);strokeColor=none;strokeWidth=0;spacingTop=-3;spacingBottom=-3;spacingLeft=-3;spacingRight=-3;points=[];labelBackgroundColor=none;rounded=0;html=1;whiteSpace=wrap;" parent="16" vertex="1">
          <mxGeometry x="11" y="44" width="52" as="geometry" />
        </mxCell>
        <mxCell id="25" style="vsdxID=36;fillColor=#ffffff;gradientColor=#a4a4a4;shape=stencil(nZBLDoAgDERP0z3SIyjew0SURgSD+Lu9kMZoXLhwN9O+tukAlrNpJg1SzDH4QW/URgNYgZTkjA4UkwJUgGXng+6DX1zLfmoymdXo17xh5zmRJ6Q42BWCfc2oJfdAr+Yv+AP9Cb7OJ3H/2JG1HNGz/84klThPVCc=);strokeColor=none;strokeWidth=0;spacingTop=-3;spacingBottom=-3;spacingLeft=-3;spacingRight=-3;points=[];labelBackgroundColor=none;rounded=0;html=1;whiteSpace=wrap;" parent="16" vertex="1">
          <mxGeometry x="11" y="52" width="52" as="geometry" />
        </mxCell>
        <mxCell id="26" style="vsdxID=37;fillColor=#ffffff;gradientColor=#a4a4a4;shape=stencil(nZBLDoAgDERP0z3SIyjew0SURgSD+Lu9kMZoXLhwN9O+tukAlrNpJg1SzDH4QW/URgNYgZTkjA4UkwJUgGXng+6DX1zLfmoymdXo17xh5zmRJ6Q42BWCfc2oJfdAr+Yv+AP9Cb7OJ3H/2JG1HNGz/84klThPVCc=);strokeColor=none;strokeWidth=0;spacingTop=-3;spacingBottom=-3;spacingLeft=-3;spacingRight=-3;points=[];labelBackgroundColor=none;rounded=0;html=1;whiteSpace=wrap;" parent="16" vertex="1">
          <mxGeometry x="11" y="60" width="52" as="geometry" />
        </mxCell>
        <mxCell id="27" style="vsdxID=38;fillColor=#ffffff;gradientColor=#a4a4a4;shape=stencil(nZBLDoAgDERP0z3SIyjew0SURgSD+Lu9kMZoXLhwN9O+tukAlrNpJg1SzDH4QW/URgNYgZTkjA4UkwJUgGXng+6DX1zLfmoymdXo17xh5zmRJ6Q42BWCfc2oJfdAr+Yv+AP9Cb7OJ3H/2JG1HNGz/84klThPVCc=);strokeColor=none;strokeWidth=0;spacingTop=-3;spacingBottom=-3;spacingLeft=-3;spacingRight=-3;points=[];labelBackgroundColor=none;rounded=0;html=1;whiteSpace=wrap;" parent="16" vertex="1">
          <mxGeometry x="11" y="68" width="52" as="geometry" />
        </mxCell>
        <mxCell id="28" style="vsdxID=39;fillColor=#ffffff;gradientColor=#a4a4a4;shape=stencil(nZBLDoAgDERP0z3SIyjew0SURgSD+Lu9kMZoXLhwN9O+tukAlrNpJg1SzDH4QW/URgNYgZTkjA4UkwJUgGXng+6DX1zLfmoymdXo17xh5zmRJ6Q42BWCfc2oJfdAr+Yv+AP9Cb7OJ3H/2JG1HNGz/84klThPVCc=);strokeColor=none;strokeWidth=0;spacingTop=-3;spacingBottom=-3;spacingLeft=-3;spacingRight=-3;points=[];labelBackgroundColor=none;rounded=0;html=1;whiteSpace=wrap;" parent="16" vertex="1">
          <mxGeometry x="11" y="76" width="52" as="geometry" />
        </mxCell>
        <mxCell id="29" value="&lt;div style=&quot;font-size: 1px&quot;&gt;&lt;font style=&quot;font-size:16.93px;font-family:Calibri;color:#000000;direction:ltr;letter-spacing:0px;line-height:120%;opacity:1&quot;&gt;.c&lt;br/&gt;&lt;/font&gt;&lt;/div&gt;" style="text;vsdxID=27;fillColor=none;gradientColor=none;strokeColor=none;points=[];labelBackgroundColor=none;rounded=0;html=1;whiteSpace=wrap;verticalAlign=middle;align=center;overflow=width;;html=1;" parent="16" vertex="1">
          <mxGeometry x="26.72" y="35.88" width="26.56" height="31.61" as="geometry" />
        </mxCell>
        <UserObject label="" tags="Background" id="30">
          <mxCell style="vsdxID=44;fillColor=none;gradientColor=none;strokeColor=none;strokeWidth=2;points=[];labelBackgroundColor=none;rounded=0;html=1;whiteSpace=wrap;" parent="1" vertex="1">
            <mxGeometry x="357" y="96" width="130" height="69" as="geometry" />
          </mxCell>
        </UserObject>
        <mxCell id="31" value="&lt;div style=&quot;font-size: 1px&quot;&gt;&lt;p style=&quot;text-align:center;margin-left:0;margin-right:0;margin-top:0px;margin-bottom:0px;text-indent:0;vertical-align:middle;direction:ltr;&quot;&gt;&lt;font style=&quot;font-size:14.11px;font-family:Calibri;color:#000000;direction:ltr;letter-spacing:0px;line-height:120%;opacity:1&quot;&gt;Pré-processeur&lt;br/&gt;&lt;/font&gt;&lt;font style=&quot;font-size:14.11px;font-family:Themed;color:#000000;direction:ltr;letter-spacing:0px;line-height:120%;opacity:1&quot;&gt;&lt;b&gt;gcc -E&lt;/b&gt;&lt;/font&gt;&lt;font style=&quot;font-size:14.11px;font-family:Themed;color:#000000;direction:ltr;letter-spacing:0px;line-height:120%;opacity:1&quot;&gt;&lt;br/&gt;&lt;/font&gt;&lt;/p&gt;&lt;/div&gt;" style="verticalAlign=middle;align=center;overflow=width;vsdxID=43;fillColor=#ffffff;gradientColor=none;shape=stencil(nZBLDoAgDERP0z3SIyjew0SURgSD+Lu9kMZoXLhwN9O+tukAlrNpJg1SzDH4QW/URgNYgZTkjA4UkwJUgGXng+6DX1zLfmoymdXo17xh5zmRJ6Q42BWCfc2oJfdAr+Yv+AP9Cb7OJ3H/2JG1HNGz/84klThPVCc=);strokeColor=#000000;points=[[1,0.5,0],[0.5,0,0],[0.5,0.5,0],[0.5,0.5,0]];labelBackgroundColor=none;rounded=0;html=1;whiteSpace=wrap;" parent="30" vertex="1">
          <mxGeometry width="130" height="69" as="geometry" />
        </mxCell>
        <UserObject label="" tags="Background" id="32">
          <mxCell style="vsdxID=45;fillColor=none;gradientColor=none;strokeColor=none;points=[];labelBackgroundColor=none;rounded=0;html=1;whiteSpace=wrap;" parent="1" vertex="1">
            <mxGeometry x="566" y="82" width="78" height="98" as="geometry" />
          </mxCell>
        </UserObject>
        <mxCell id="33" style="vsdxID=46;fillColor=#FFFFFF;gradientColor=none;shape=stencil(pZHNDsIgEISfhitZFkzDudb3aFIqRISG4t/bCxJjW22i8Ta7fLMhM4TXo24HRRDGGPxBXUwXNeFbgmicVsHEpAhvCK97H9Q++JPryjy0mczq6M/5wrX4GED2INzKjIwyfGx2BbfGTfBKULGZGWAdnl8GCvxb9vmrj6iUVFb/4CgoinXDWyQ/4ssEk3il3xtrS3nT92VbaVWa5s0d);strokeColor=none;strokeWidth=0;spacingTop=-3;spacingBottom=-3;spacingLeft=-3;spacingRight=-3;points=[];labelBackgroundColor=none;rounded=0;html=1;whiteSpace=wrap;" parent="32" vertex="1">
          <mxGeometry x="5" y="8" width="68" height="81" as="geometry" />
        </mxCell>
        <mxCell id="34" style="vsdxID=47;fillColor=#FFFFFF;gradientColor=#ffffff;shape=stencil(nZHdCsIwDIWfJrcjSxQfYM73GKyzwdqOrv69va1BHIKKuzvJ+U4gCXAz2W40QDilGA7mIn2ywFsgEm9NlJQVcAvcDCGafQwn32s9doUs6hjOZcJVc5tVtaaSIrxpBx/VTmEnfgbjMrDGL+jTXARTXSF/xv9a7gecxeuGgzinL5j77zfPLf0Xt3c=);strokeColor=none;strokeWidth=0;spacingTop=-3;spacingBottom=-3;spacingLeft=-3;spacingRight=-3;points=[];labelBackgroundColor=none;rounded=0;html=1;whiteSpace=wrap;" parent="32" vertex="1">
          <mxGeometry x="5" y="8" width="68" height="81" as="geometry" />
        </mxCell>
        <mxCell id="35" style="vsdxID=48;fillColor=#a6a6a6;gradientColor=none;shape=stencil(nZHdDsIgDIWfprek0jjles73WDImRISF4d/bCzbG+Z94d1q+NodToHo07aBB4phi2Oqj7ZIBWoGU1hsdbcoKqAGq+xD1Joa977ge2kIWtQuHsuHEczPEMiPxzLWqxHJ+7awZd9ZP8ErIxQOPn1n8D7w5eou+2FVCfbH783dZ3JPprXMc7PT9Ocnc4itQcwE=);strokeColor=none;strokeWidth=0;spacingTop=-3;spacingBottom=-3;spacingLeft=-3;spacingRight=-3;points=[];labelBackgroundColor=none;rounded=0;html=1;whiteSpace=wrap;" parent="32" vertex="1">
          <mxGeometry x="54" y="8" width="18" height="17" as="geometry" />
        </mxCell>
        <mxCell id="36" style="vsdxID=49;fillColor=#FFFFFF;gradientColor=none;shape=stencil(UzV2Ls5ILEhVNTIoLinKz04tz0wpyVA1dlE1MsrMy0gtyiwBslSNXVWNndPyi1LTi/JL81Ig/IJEkEoQKze/DGRCBUSfAUiHkUElhGdoAOG7QZTmZOYhKYVJwhRbWupZmuBWjqoYj7l4nQBkIJyelpmTA/E5sjy6V4FCkGAydgUA);strokeColor=none;strokeWidth=0;spacingTop=-3;spacingBottom=-3;spacingLeft=-3;spacingRight=-3;points=[];labelBackgroundColor=none;rounded=0;html=1;whiteSpace=wrap;" parent="32" vertex="1">
          <mxGeometry x="55" y="9" width="16" height="16" as="geometry" />
        </mxCell>
        <mxCell id="37" style="vsdxID=50;fillColor=none;gradientColor=none;shape=stencil(pZHNDsIgEISfhitZFkzDudb3aFIqRISG4t/bCxJjW22i8Ta7fLMhM4TXo24HRRDGGPxBXUwXNeFbgmicVsHEpAhvCK97H9Q++JPryjy0mczq6M/5wrX4GED2INzKjIwyfGx2BbfGTfBKULGZGWAdnl8GCvxb9vmrj6iUVFb/4CgoinXDWyQ/4ssEk3il3xtrS3nT92VbaVWa5s0d);strokeColor=#000000;spacingTop=-3;spacingBottom=-3;spacingLeft=-3;spacingRight=-3;points=[];labelBackgroundColor=none;rounded=0;html=1;whiteSpace=wrap;" parent="32" vertex="1">
          <mxGeometry x="5" y="8" width="68" height="81" as="geometry" />
        </mxCell>
        <mxCell id="38" style="vsdxID=51;fillColor=#ffffff;gradientColor=#a4a4a4;shape=stencil(nZBLDoAgDERP0z3SIyjew0SURgSD+Lu9kMZoXLhwN9O+tukAlrNpJg1SzDH4QW/URgNYgZTkjA4UkwJUgGXng+6DX1zLfmoymdXo17xh5zmRJ6Q42BWCfc2oJfdAr+Yv+AP9Cb7OJ3H/2JG1HNGz/84klThPVCc=);strokeColor=none;strokeWidth=0;spacingTop=-3;spacingBottom=-3;spacingLeft=-3;spacingRight=-3;points=[];labelBackgroundColor=none;rounded=0;html=1;whiteSpace=wrap;" parent="32" vertex="1">
          <mxGeometry x="11" y="27" width="31" as="geometry" />
        </mxCell>
        <mxCell id="39" style="vsdxID=52;fillColor=#ffffff;gradientColor=#a4a4a4;shape=stencil(nZBLDoAgDERP0z3SIyjew0SURgSD+Lu9kMZoXLhwN9O+tukAlrNpJg1SzDH4QW/URgNYgZTkjA4UkwJUgGXng+6DX1zLfmoymdXo17xh5zmRJ6Q42BWCfc2oJfdAr+Yv+AP9Cb7OJ3H/2JG1HNGz/84klThPVCc=);strokeColor=none;strokeWidth=0;spacingTop=-3;spacingBottom=-3;spacingLeft=-3;spacingRight=-3;points=[];labelBackgroundColor=none;rounded=0;html=1;whiteSpace=wrap;" parent="32" vertex="1">
          <mxGeometry x="11" y="36" width="52" as="geometry" />
        </mxCell>
        <mxCell id="40" style="vsdxID=53;fillColor=#ffffff;gradientColor=#a4a4a4;shape=stencil(nZBLDoAgDERP0z3SIyjew0SURgSD+Lu9kMZoXLhwN9O+tukAlrNpJg1SzDH4QW/URgNYgZTkjA4UkwJUgGXng+6DX1zLfmoymdXo17xh5zmRJ6Q42BWCfc2oJfdAr+Yv+AP9Cb7OJ3H/2JG1HNGz/84klThPVCc=);strokeColor=none;strokeWidth=0;spacingTop=-3;spacingBottom=-3;spacingLeft=-3;spacingRight=-3;points=[];labelBackgroundColor=none;rounded=0;html=1;whiteSpace=wrap;" parent="32" vertex="1">
          <mxGeometry x="11" y="44" width="52" as="geometry" />
        </mxCell>
        <mxCell id="41" style="vsdxID=54;fillColor=#ffffff;gradientColor=#a4a4a4;shape=stencil(nZBLDoAgDERP0z3SIyjew0SURgSD+Lu9kMZoXLhwN9O+tukAlrNpJg1SzDH4QW/URgNYgZTkjA4UkwJUgGXng+6DX1zLfmoymdXo17xh5zmRJ6Q42BWCfc2oJfdAr+Yv+AP9Cb7OJ3H/2JG1HNGz/84klThPVCc=);strokeColor=none;strokeWidth=0;spacingTop=-3;spacingBottom=-3;spacingLeft=-3;spacingRight=-3;points=[];labelBackgroundColor=none;rounded=0;html=1;whiteSpace=wrap;" parent="32" vertex="1">
          <mxGeometry x="11" y="52" width="52" as="geometry" />
        </mxCell>
        <mxCell id="42" style="vsdxID=55;fillColor=#ffffff;gradientColor=#a4a4a4;shape=stencil(nZBLDoAgDERP0z3SIyjew0SURgSD+Lu9kMZoXLhwN9O+tukAlrNpJg1SzDH4QW/URgNYgZTkjA4UkwJUgGXng+6DX1zLfmoymdXo17xh5zmRJ6Q42BWCfc2oJfdAr+Yv+AP9Cb7OJ3H/2JG1HNGz/84klThPVCc=);strokeColor=none;strokeWidth=0;spacingTop=-3;spacingBottom=-3;spacingLeft=-3;spacingRight=-3;points=[];labelBackgroundColor=none;rounded=0;html=1;whiteSpace=wrap;" parent="32" vertex="1">
          <mxGeometry x="11" y="60" width="52" as="geometry" />
        </mxCell>
        <mxCell id="43" style="vsdxID=56;fillColor=#ffffff;gradientColor=#a4a4a4;shape=stencil(nZBLDoAgDERP0z3SIyjew0SURgSD+Lu9kMZoXLhwN9O+tukAlrNpJg1SzDH4QW/URgNYgZTkjA4UkwJUgGXng+6DX1zLfmoymdXo17xh5zmRJ6Q42BWCfc2oJfdAr+Yv+AP9Cb7OJ3H/2JG1HNGz/84klThPVCc=);strokeColor=none;strokeWidth=0;spacingTop=-3;spacingBottom=-3;spacingLeft=-3;spacingRight=-3;points=[];labelBackgroundColor=none;rounded=0;html=1;whiteSpace=wrap;" parent="32" vertex="1">
          <mxGeometry x="11" y="68" width="52" as="geometry" />
        </mxCell>
        <mxCell id="44" style="vsdxID=57;fillColor=#ffffff;gradientColor=#a4a4a4;shape=stencil(nZBLDoAgDERP0z3SIyjew0SURgSD+Lu9kMZoXLhwN9O+tukAlrNpJg1SzDH4QW/URgNYgZTkjA4UkwJUgGXng+6DX1zLfmoymdXo17xh5zmRJ6Q42BWCfc2oJfdAr+Yv+AP9Cb7OJ3H/2JG1HNGz/84klThPVCc=);strokeColor=none;strokeWidth=0;spacingTop=-3;spacingBottom=-3;spacingLeft=-3;spacingRight=-3;points=[];labelBackgroundColor=none;rounded=0;html=1;whiteSpace=wrap;" parent="32" vertex="1">
          <mxGeometry x="11" y="76" width="52" as="geometry" />
        </mxCell>
        <mxCell id="45" value="&lt;div style=&quot;font-size: 1px&quot;&gt;&lt;font style=&quot;font-size:16.93px;font-family:Calibri;color:#000000;direction:ltr;letter-spacing:0px;line-height:120%;opacity:1&quot;&gt;.i&lt;br/&gt;&lt;/font&gt;&lt;/div&gt;" style="text;vsdxID=45;fillColor=none;gradientColor=none;strokeColor=none;points=[];labelBackgroundColor=none;rounded=0;html=1;whiteSpace=wrap;verticalAlign=middle;align=center;overflow=width;;html=1;" parent="32" vertex="1">
          <mxGeometry x="28.36" y="35.88" width="23.28" height="31.61" as="geometry" />
        </mxCell>
        <UserObject label="" tags="Lien" id="46">
          <mxCell style="vsdxID=60;edgeStyle=none;startArrow=none;endArrow=block;startSize=5;endSize=5;strokeColor=#000000;spacingTop=0;spacingBottom=0;spacingLeft=0;spacingRight=0;verticalAlign=middle;html=1;labelBackgroundColor=#ffffff;rounded=0;exitX=1.0076923076923077;exitY=0.5072463768115942;exitDx=0;exitDy=0;exitPerimeter=0;entryX=0.0641025641025641;entryY=0.5;entryDx=0;entryDy=0;entryPerimeter=0;" parent="1" source="31" target="32" edge="1">
            <mxGeometry relative="1" as="geometry">
              <mxPoint x="-1" as="offset" />
              <Array as="points" />
            </mxGeometry>
          </mxCell>
        </UserObject>
        <UserObject label="" tags="Lien" id="47">
          <mxCell style="vsdxID=59;edgeStyle=none;startArrow=none;endArrow=block;startSize=5;endSize=5;strokeColor=#000000;spacingTop=0;spacingBottom=0;spacingLeft=0;spacingRight=0;verticalAlign=middle;html=1;labelBackgroundColor=#ffffff;rounded=0;exitX=0.9358974358974359;exitY=0.5204081632653061;exitDx=0;exitDy=0;exitPerimeter=0;entryX=0;entryY=0.5072463768115942;entryDx=0;entryDy=0;entryPerimeter=0;" parent="1" source="16" target="31" edge="1">
            <mxGeometry relative="1" as="geometry">
              <mxPoint y="-1" as="offset" />
              <Array as="points">
                <mxPoint x="293.05" y="178" />
                <mxPoint x="293.05" y="130.83" />
              </Array>
            </mxGeometry>
          </mxCell>
        </UserObject>
        <UserObject label="" tags="Lien" id="48">
          <mxCell style="vsdxID=58;edgeStyle=none;startArrow=none;endArrow=block;startSize=5;endSize=5;strokeColor=#000000;spacingTop=0;spacingBottom=0;spacingLeft=0;spacingRight=0;verticalAlign=middle;html=1;labelBackgroundColor=#ffffff;rounded=0;exitX=0.9358974358974359;exitY=0.5;exitDx=0;exitDy=0;exitPerimeter=0;entryX=0;entryY=0.5072463768115942;entryDx=0;entryDy=0;entryPerimeter=0;" parent="1" source="2" target="31" edge="1">
            <mxGeometry relative="1" as="geometry">
              <mxPoint y="-1" as="offset" />
              <Array as="points">
                <mxPoint x="293.05" y="73" />
                <mxPoint x="293.05" y="130.5" />
              </Array>
            </mxGeometry>
          </mxCell>
        </UserObject>
        <UserObject label="" tags="Diagramme_de_flux Lien" id="49">
          <mxCell parent="1" vertex="1" visible="0">
            <mxGeometry as="geometry" />
          </mxCell>
        </UserObject>
      </root>
    </mxGraphModel>
  </diagram>
</mxfile>
